# xmcd
#
# Track frame offsets: 
#        183
#        13503
#        25528
#        36293
#        49548
#        61675
#        74715
#        86548
#        101440
#        115715
#        129965
#        145800
#        157925
#        168938
#        182003
#        194123
#
# Disc length: 2757 seconds
#
# Revision: 2
# Processed by: cddbd v1.5.2PL0 Copyright (c) Steve Scherf et al.
# Submitted via: ExactAudioCopy v0.99pb3
#
DISCID=c90ac310
DTITLE=Various Artist - The Collectables Blues Collection-Vol. 1
DYEAR=1900
DGENRE=Blues
TTITLE0=Buster Brown - Fannie Mae
TTITLE1=Jimmy Reed - Bright Lights, Big City
TTITLE2=Lightin' Hopkins - Nothing But the Blues
TTITLE3=Screamin' Jay Hawkins - Why Did You Waste My Time?
TTITLE4=Sonny Terry - Wine Headed Woman
TTITLE5=Muddy Waters - I'm the Hootchie Coochie Man
TTITLE6=John Lee Hooker - Boogie Chillun'
TTITLE7=Elmore James - Everyday I Have the Blues
TTITLE8=Champion Jack Dupree - Drunk Again
TTITLE9=Thelma Cooper and Her Boyfriends - Ooh Daddy
TTITLE10=Elmore James - Twelve Year Old Boy
TTITLE11=George Grant and The Rockin' Highlanders - I'm In Love With You
TTITLE11=Baby
TTITLE12=Jimmy Rushing - Hey Miss Bessie
TTITLE13=Buster Brown - Don't Dog Your Woman
TTITLE14=Lightnin' Hopkins - Don't Think 'Cause Your Pretty
TTITLE15=Jimmy Reed - Big Boss Man
EXTD=
EXTT0=
EXTT1=
EXTT2=
EXTT3=
EXTT4=
EXTT5=
EXTT6=
EXTT7=
EXTT8=
EXTT9=
EXTT10=
EXTT11=
EXTT12=
EXTT13=
EXTT14=
EXTT15=
PLAYORDER=
